<svg width="114" height="83" viewBox="0 0 114 83" fill="none" xmlns="http://www.w3.org/2000/svg">
<defs>
<filter id="filter0_d_14_231" x="0.0841064" y="58.1135" width="104.142" height="23.9409" filterUnits="userSpaceOnUse" color-interpolation-filters="sRGB">
<feFlood flood-opacity="0" result="BackgroundImageFix"/>
<feColorMatrix in="SourceAlpha" type="matrix" values="0 0 0 0 0 0 0 0 0 0 0 0 0 0 0 0 0 0 127 0" result="hardAlpha"/>
<feOffset/>
<feGaussianBlur stdDeviation="2.5"/>
<feComposite in2="hardAlpha" operator="out"/>
<feColorMatrix type="matrix" values="0 0 0 0 0.150781 0 0 0 0 0.686557 0 0 0 0 0.804167 0 0 0 1 0"/>
<feBlend mode="normal" in2="BackgroundImageFix" result="effect1_dropShadow_14_231"/>
<feBlend mode="normal" in="SourceGraphic" in2="effect1_dropShadow_14_231" result="shape"/>
</filter>
<filter id="filter1_d_14_231" x="0.188843" y="18.8314" width="113.286" height="42.4863" filterUnits="userSpaceOnUse" color-interpolation-filters="sRGB">
<feFlood flood-opacity="0" result="BackgroundImageFix"/>
<feColorMatrix in="SourceAlpha" type="matrix" values="0 0 0 0 0 0 0 0 0 0 0 0 0 0 0 0 0 0 127 0" result="hardAlpha"/>
<feOffset/>
<feGaussianBlur stdDeviation="2.5"/>
<feComposite in2="hardAlpha" operator="out"/>
<feColorMatrix type="matrix" values="0 0 0 0 0.150781 0 0 0 0 0.686557 0 0 0 0 0.804167 0 0 0 1 0"/>
<feBlend mode="normal" in2="BackgroundImageFix" result="effect1_dropShadow_14_231"/>
<feBlend mode="normal" in="SourceGraphic" in2="effect1_dropShadow_14_231" result="shape"/>
</filter>
<filter id="filter2_d_14_231" x="5.67249" y="4.34672" width="63.8811" height="42.4862" filterUnits="userSpaceOnUse" color-interpolation-filters="sRGB">
<feFlood flood-opacity="0" result="BackgroundImageFix"/>
<feColorMatrix in="SourceAlpha" type="matrix" values="0 0 0 0 0 0 0 0 0 0 0 0 0 0 0 0 0 0 127 0" result="hardAlpha"/>
<feOffset/>
<feGaussianBlur stdDeviation="2.5"/>
<feComposite in2="hardAlpha" operator="out"/>
<feColorMatrix type="matrix" values="0 0 0 0 0.150781 0 0 0 0 0.686557 0 0 0 0 0.804167 0 0 0 1 0"/>
<feBlend mode="normal" in2="BackgroundImageFix" result="effect1_dropShadow_14_231"/>
<feBlend mode="normal" in="SourceGraphic" in2="effect1_dropShadow_14_231" result="shape"/>
</filter>
</defs>
<g filter="url(#filter0_d_14_231)">
<path d="M6 64.4344L15.0261 71.3934C21.951 76.7325 31.5415 76.9539 38.7055 71.9402L40.0176 71.0218L42.0136 69.6249C48.7707 64.8959 57.8165 65.1048 64.3482 70.1406V70.1406C70.2411 74.684 78.2541 75.3388 84.8064 71.8124L98.5153 64.4344" stroke="#26AFCD" stroke-width="3"/>
</g>
<g filter="url(#filter1_d_14_231)">
<path d="M6 54.6681L7.60037 53.6393C10.8263 51.5655 14.5805 50.4629 18.4155 50.4629H33.5677H72.6847C74.6312 50.4629 76.5673 50.747 78.4317 51.3064L87.9983 54.1763C98.982 57.4714 109.351 47.5037 106.493 36.3985V36.3985C103.838 26.0857 91.4531 21.9125 83.0984 28.5154L71.8821 37.3799" stroke="#26AFCD" stroke-width="3"/>
</g>
<g filter="url(#filter2_d_14_231)">
<path d="M27.9607 22.8952L39.177 14.0307C47.5317 7.42777 59.9165 11.601 62.5713 21.9137V21.9137C65.4301 33.019 55.0606 42.9867 44.0769 39.6916L34.5103 36.8216C32.6459 36.2623 30.7098 35.9782 28.7633 35.9782H10.6725" stroke="#26AFCD" stroke-width="3"/>
</g>
</svg>
