<svg width="103" height="101" viewBox="0 0 103 101" fill="none" xmlns="http://www.w3.org/2000/svg">
<circle cx="51" cy="50" r="22" stroke="#5A5A5A" stroke-width="6"/>
<circle cx="51" cy="50" r="5" fill="#5A5A5A"/>
<rect x="48" y="30" width="30" height="6" rx="3" transform="rotate(-90 48 30)" fill="#5A5A5A"/>
<rect x="48" y="16.4676" width="16.8396" height="6" rx="3" transform="rotate(-45 48 16.4676)" fill="#5A5A5A"/>
<rect x="42.2556" y="5.01304" width="17.9105" height="6" rx="3" transform="rotate(45 42.2556 5.01304)" fill="#5A5A5A"/>
<rect x="54.2622" y="70.0318" width="30" height="6" rx="3" transform="rotate(90.3036 54.2622 70.0318)" fill="#5A5A5A"/>
<rect x="54.1904" y="83.564" width="16.8396" height="6" rx="3" transform="rotate(135.304 54.1904 83.564)" fill="#5A5A5A"/>
<rect x="59.8738" y="95.0488" width="17.9105" height="6" rx="3" transform="rotate(-134.696 59.8738 95.0488)" fill="#5A5A5A"/>
<rect x="70.5435" y="61" width="30" height="6" rx="3" transform="rotate(49.2205 70.5435 61)" fill="#5A5A5A"/>
<rect x="79.3818" y="71.2472" width="16.8396" height="6" rx="3" transform="rotate(94.2205 79.3818 71.2472)" fill="#5A5A5A"/>
<rect x="91.2134" y="76.169" width="17.9105" height="6" rx="3" transform="rotate(-175.78 91.2134 76.169)" fill="#5A5A5A"/>
<rect width="30" height="6" rx="3" transform="matrix(0.65315 -0.757229 -0.757229 -0.65315 70.5435 40.0411)" fill="#5A5A5A"/>
<rect width="16.8396" height="6" rx="3" transform="matrix(-0.0735948 -0.997288 -0.997288 0.0735948 79.3818 29.794)" fill="#5A5A5A"/>
<rect width="17.9105" height="6" rx="3" transform="matrix(-0.997288 0.0735948 0.0735948 0.997288 91.2134 24.8721)" fill="#5A5A5A"/>
<rect width="30" height="6" rx="3" transform="matrix(0.999992 -0.00405375 -0.00405375 -0.999992 72.0244 53.2359)" fill="#5A5A5A"/>
<rect width="16.8396" height="6" rx="3" transform="matrix(0.704234 -0.709967 -0.709967 -0.704234 85.5566 53.181)" fill="#5A5A5A"/>
<rect width="17.9105" height="6" rx="3" transform="matrix(-0.709967 -0.704234 -0.704234 0.709967 97.0344 58.8788)" fill="#5A5A5A"/>
<rect x="29.9998" y="54.2359" width="30" height="6" rx="3" transform="rotate(-179.768 29.9998 54.2359)" fill="#5A5A5A"/>
<rect x="16.4673" y="54.181" width="16.8396" height="6" rx="3" transform="rotate(-134.768 16.4673 54.181)" fill="#5A5A5A"/>
<rect x="4.9895" y="59.8788" width="17.9105" height="6" rx="3" transform="rotate(-44.7677 4.9895 59.8788)" fill="#5A5A5A"/>
<rect x="33.1113" y="40.0411" width="30" height="6" rx="3" transform="rotate(-130.78 33.1113 40.0411)" fill="#5A5A5A"/>
<rect x="24.2727" y="29.794" width="16.8396" height="6" rx="3" transform="rotate(-85.7795 24.2727 29.794)" fill="#5A5A5A"/>
<rect x="12.4414" y="24.8721" width="17.9105" height="6" rx="3" transform="rotate(4.22049 12.4414 24.8721)" fill="#5A5A5A"/>
<rect width="30" height="6" rx="3" transform="matrix(-0.65315 0.757229 0.757229 0.65315 34.1113 62)" fill="#5A5A5A"/>
<rect width="16.8396" height="6" rx="3" transform="matrix(0.0735948 0.997288 0.997288 -0.0735948 25.2727 72.2472)" fill="#5A5A5A"/>
<rect width="17.9105" height="6" rx="3" transform="matrix(0.997288 -0.0735948 -0.0735948 -0.997288 13.4414 77.169)" fill="#5A5A5A"/>
</svg>
